<svg xmlns="http://www.w3.org/2000/svg" width="64" height="64" viewBox="0 0 256 256">
  <circle cx="128" cy="128" r="128" fill="#25D366"/>
  <path fill="#fff" d="M180.5 148.7c-2.7-1.4-15.9-7.8-18.3-8.6-2.4-.9-4.1-1.4-5.8 1.4-1.8 2.7-6.7 8.5-8.2 10.3-1.5 1.8-3 2-5.6.7-2.7-1.4-11.3-4.2-21.6-13.4-8-7.1-13.4-15.9-15-18.6-1.6-2.7-.2-4.1 1.2-5.5 1.2-1.2 2.7-3 4.1-4.5 1.4-1.5 1.8-2.5 2.7-4.2.9-1.7.4-3.2-.2-4.5-.7-1.3-5.8-13.9-8-19-2.1-5.1-4.3-4.4-5.8-4.5-1.5-.1-3.2-.1-4.9-.1s-4.5.7-6.9 3.2c-2.4 2.5-9.1 8.9-9.1 21.7s9.3 25.1 10.6 26.8c1.3 1.7 18.3 28 44.4 39.3 26.2 11.3 26.2 7.6 30.9 7.1 4.7-.4 15.8-6.5 18.1-12.7 2.3-6.3 2.3-11.7 1.6-12.7-.7-1-2.5-1.6-5.2-2.9z"/>
</svg>
